<?xml version="1.0" standalone="no"?>
<!DOCTYPE svg PUBLIC "-//W3C//DTD SVG 20010904//EN"
 "http://www.w3.org/TR/2001/REC-SVG-20010904/DTD/svg10.dtd">
<svg version="1.0" xmlns="http://www.w3.org/2000/svg"
 width="16.000000pt" height="16.000000pt" viewBox="0 0 16.000000 16.000000"
 preserveAspectRatio="xMidYMid meet">
<metadata>
Created by potrace 1.11, written by Peter Selinger 2001-2013
</metadata>
<g transform="translate(0.000000,16.000000) scale(0.002286,-0.002286)"
fill="#000000" stroke="none">
<path d="M139 6865 c-1 0 -2 -1513 -3 -3363 -1 -2235 2 -3362 9 -3363 6 -1
1519 -2 3362 -3 2229 -1 3353 2 3354 9 1 6 2 1517 3 3358 1 2223 -2 3351 -9
3355 -8 5 -1662 7 -6716 7z m6681 -3365 l0 -3320 -3320 0 -3320 0 0 3320 0
3320 3320 0 3320 0 0 -3320z"/>
<path d="M481 5942 c-8 -3 -11 -512 -11 -1703 l0 -1699 120 0 120 0 0 705 c0
557 3 705 13 706 6 0 215 2 462 4 248 1 461 5 475 9 14 3 41 9 60 12 314 54
561 267 666 577 22 63 33 114 50 222 23 144 0 429 -45 557 -97 280 -285 473
-541 556 -36 12 -80 24 -99 27 -19 3 -37 8 -40 10 -22 13 -203 18 -678 19
-298 1 -547 0 -552 -2z m1172 -251 c350 -60 562 -359 551 -776 -6 -221 -77
-405 -210 -538 -85 -86 -194 -140 -347 -173 -18 -3 -236 -8 -484 -10 l-453 -4
0 753 c0 415 2 756 5 758 10 11 872 2 938 -10z"/>
<path d="M2520 4243 l0 -1703 33 -1 c114 -2 890 2 927 5 277 25 504 130 695
321 235 235 350 475 420 880 4 22 9 227 10 455 4 447 -2 529 -49 724 -86 355
-269 636 -543 829 -98 69 -273 145 -373 162 -19 3 -42 8 -50 10 -53 14 -157
18 -587 19 l-483 2 0 -1703z m990 1454 c8 -3 31 -8 50 -11 20 -3 68 -16 107
-29 230 -78 426 -263 556 -522 67 -134 109 -281 136 -475 10 -69 8 -802 -2
-858 -3 -18 -9 -52 -12 -75 -10 -66 -42 -187 -70 -261 -64 -171 -147 -300
-274 -426 -108 -107 -213 -174 -331 -213 -133 -43 -202 -49 -554 -49 -182 0
-337 0 -343 1 -10 1 -13 301 -13 1465 l0 1463 368 -2 c202 -1 374 -5 382 -8z"/>
<path d="M4703 4240 l0 -1705 526 1 c581 2 647 5 771 35 300 74 523 281 605
564 50 172 57 448 16 600 -54 203 -187 396 -336 490 -63 40 -166 85 -193 85
-38 0 -32 18 11 35 90 35 191 115 272 215 11 14 36 57 56 95 67 128 91 235 91
404 2 514 -270 815 -792 877 -36 4 -281 8 -546 8 l-481 1 0 -1705z m1081 1446
c341 -74 499 -276 498 -636 -1 -296 -124 -494 -362 -584 -111 -41 -198 -48
-585 -48 -198 0 -367 1 -376 1 -15 1 -16 59 -16 639 0 369 3 639 9 643 4 3
176 5 381 4 307 -2 386 -5 451 -19z m193 -1538 c108 -33 182 -79 255 -158 141
-153 206 -410 167 -665 -47 -305 -257 -505 -572 -541 -41 -5 -770 -9 -863 -5
l-21 1 0 700 0 700 476 -4 c475 -3 476 -3 558 -28z"/>
<path d="M5605 2234 c-235 -36 -393 -127 -467 -271 -45 -86 -60 -152 -63 -267
-6 -302 143 -482 455 -550 98 -21 235 -32 367 -30 498 10 744 209 728 592 -13
311 -175 467 -552 530 -79 14 -367 11 -468 -4z m420 -209 c70 -18 142 -64 174
-111 95 -139 78 -396 -34 -499 -75 -69 -169 -95 -339 -90 -213 5 -315 65 -366
216 -30 86 -25 237 10 316 25 59 90 124 147 149 96 41 286 50 408 19z"/>
<path d="M488 2213 c-15 -9 -29 -26 -32 -37 -3 -12 -6 -238 -6 -504 l0 -483
25 -24 c26 -27 34 -28 195 -26 87 1 96 3 119 26 25 25 25 27 26 198 l0 174
151 -2 c142 -2 155 -3 206 -28 65 -32 102 -68 219 -213 120 -148 136 -156 312
-157 73 0 145 3 160 7 25 6 28 10 22 33 -3 14 -19 42 -35 62 -222 274 -271
325 -340 353 -23 9 -17 12 55 32 140 38 214 86 255 165 23 46 21 155 -4 213
-37 86 -147 166 -281 204 -52 15 -122 18 -540 21 -439 3 -482 2 -507 -14z
m860 -217 c96 -24 133 -59 126 -119 -11 -102 -97 -126 -439 -124 l-220 2 0
115 c-1 63 1 122 3 130 5 23 440 20 530 -4z"/>
<path d="M2088 2214 c-15 -8 -30 -25 -33 -37 -3 -12 -4 -242 -3 -511 l3 -489
27 -20 c26 -19 42 -20 585 -19 307 0 573 1 591 1 54 1 82 38 82 106 0 46 -4
60 -25 80 -28 29 26 26 -526 27 l-376 0 0 113 0 113 346 0 c190 0 363 1 384 1
54 1 87 39 87 98 0 47 -13 80 -39 100 -12 9 -113 12 -398 13 l-381 0 0 110 c0
94 3 110 17 111 9 0 205 2 436 3 231 1 428 6 438 10 46 21 58 139 18 180 -22
21 -23 21 -614 23 -510 2 -596 0 -619 -13z"/>
<path d="M3573 2220 c-51 -21 -51 -19 -51 -540 0 -285 4 -492 10 -503 19 -36
55 -40 384 -39 397 0 489 6 622 39 282 68 415 232 413 508 0 50 -8 117 -16
150 -9 33 -19 70 -22 83 -3 12 -9 22 -14 22 -5 0 -9 5 -9 10 0 16 -41 70 -80
107 -85 80 -212 130 -405 159 -70 10 -809 15 -832 4z m702 -214 c132 -13 226
-55 265 -119 30 -49 42 -94 45 -182 10 -211 -63 -304 -265 -340 -19 -4 -123
-8 -231 -11 l-197 -4 -3 22 c-2 13 -4 160 -3 326 0 210 4 306 12 310 12 8 289
6 377 -2z"/>
</g>
</svg>
