<?xml version="1.0" encoding="utf-8"?>
<!-- Generator: Adobe Illustrator 16.0.3, SVG Export Plug-In . SVG Version: 6.00 Build 0)  -->
<!DOCTYPE svg PUBLIC "-//W3C//DTD SVG 1.1//EN" "http://www.w3.org/Graphics/SVG/1.1/DTD/svg11.dtd">
<svg version="1.1" id="Layer_1" xmlns="http://www.w3.org/2000/svg" xmlns:xlink="http://www.w3.org/1999/xlink" x="0px" y="0px"
	 width="160px" height="160px" viewBox="0 0 160 160" enable-background="new 0 0 160 160" xml:space="preserve">
<g>
	<g>
		<g>
			<g>
				<path fill="#3366CC" d="M43.169,133.261c0,0.499-0.375,0.748-1.125,0.748h-5.296c-0.56,0-1.174-0.159-1.843-0.479
					c-0.67-0.319-1.181-0.705-1.534-1.157l-3.751-4.63c-1.545-1.903-3.413-2.854-5.605-2.854H18.63v7.484
					c0,0.452-0.202,0.838-0.606,1.157s-0.894,0.479-1.468,0.479h-4.148c-0.573,0-1.066-0.159-1.479-0.479s-0.618-0.705-0.618-1.157
					v-21.669c0-0.452,0.199-0.841,0.597-1.166c0.396-0.325,0.882-0.487,1.456-0.487h18.205c3.369,0,6.132,0.714,8.287,2.141
					c2.154,1.427,3.232,3.354,3.232,5.778c0,3.376-2.773,5.494-8.319,6.353c0.883,0.256,1.699,0.693,2.449,1.314
					c0.751,0.62,1.611,1.522,2.582,2.706l4.017,5.03C43.052,132.697,43.169,132.993,43.169,133.261z M18.63,119.963h9.401
					c1.515,0,2.85-0.237,4.005-0.713s1.732-1.236,1.732-2.28s-0.577-1.804-1.732-2.28c-1.155-0.476-2.49-0.713-4.005-0.713H18.63
					V119.963z"/>
				<path fill="#3366CC" d="M46.832,132.338v-21.669c0-0.452,0.206-0.835,0.618-1.148s0.905-0.47,1.479-0.47h25.444
					c0.573,0,1.063,0.162,1.467,0.487s0.607,0.714,0.607,1.166v1.636c0,0.453-0.203,0.839-0.607,1.157
					c-0.404,0.319-0.894,0.479-1.467,0.479H55.151v5.064h16.551c0.574,0,1.063,0.159,1.468,0.479
					c0.404,0.319,0.606,0.705,0.606,1.157v1.636c0,0.453-0.202,0.839-0.606,1.158c-0.405,0.319-0.894,0.479-1.468,0.479H55.151
					v5.134h19.177c0.56,0,1.037,0.157,1.435,0.47c0.397,0.313,0.596,0.696,0.596,1.149v1.671c0,0.452-0.206,0.838-0.617,1.157
					c-0.412,0.319-0.905,0.479-1.479,0.479H48.929c-0.573,0-1.066-0.159-1.479-0.479S46.832,132.813,46.832,132.338z"/>
				<path fill="#3366CC" d="M80.507,132.407v-21.668c0-0.476,0.206-0.876,0.618-1.201s0.905-0.487,1.479-0.487h12.336
					c6.385,0,11.03,1.007,13.936,3.02c2.905,2.014,4.358,5.169,4.358,9.468s-1.453,7.452-4.358,9.46
					c-2.905,2.007-7.551,3.011-13.936,3.011H82.604c-0.573,0-1.066-0.153-1.479-0.461S80.507,132.86,80.507,132.407z
					 M88.826,129.083h5.87c3.958,0,6.649-0.568,8.077-1.705c1.427-1.138,2.141-3.084,2.141-5.84c0-2.755-0.714-4.705-2.141-5.848
					c-1.428-1.143-4.119-1.714-8.077-1.714h-5.87V129.083z"/>
				<path fill="#3366CC" d="M146.964,131.424c-3.009,2.083-7.423,3.124-13.241,3.124s-10.235-1.041-13.251-3.124
					c-3.017-2.082-4.524-5.38-4.524-9.895c0-4.513,1.508-7.809,4.524-9.886c3.016-2.076,7.433-3.115,13.251-3.115
					s10.232,1.039,13.241,3.115c3.008,2.077,4.513,5.373,4.513,9.886C151.477,126.044,149.972,129.342,146.964,131.424z
					 M140.928,115.316c-1.485-1.393-3.888-2.089-7.205-2.089s-5.723,0.696-7.216,2.089s-2.239,3.467-2.239,6.222
					c0,2.756,0.746,4.827,2.239,6.214s3.898,2.08,7.216,2.08s5.72-0.693,7.205-2.08c1.486-1.387,2.229-3.458,2.229-6.214
					C143.157,118.783,142.414,116.709,140.928,115.316z"/>
			</g>
		</g>
		<g>
			<path fill="#FF9933" d="M16.249,69.633v32.354H10.77V24.123h23.064c7.028,0,12.468,2.077,16.318,6.23
				c3.853,4.152,5.777,9.652,5.777,16.498c0,6.916-1.925,12.441-5.777,16.579c-3.851,4.135-9.29,6.202-16.318,6.202H16.249z
				 M16.249,64.177h17.585c5.524,0,9.674-1.63,12.451-4.892c2.778-3.262,4.168-7.372,4.168-12.328c0-4.99-1.382-9.137-4.144-12.434
				c-2.764-3.298-6.923-4.946-12.476-4.946H16.249V64.177z"/>
			<path fill="#FF9933" d="M57.6,101.987V24.123h19.473c8.193,0,14.96,3.172,20.302,9.519c5.34,6.347,8.008,14.491,8.008,24.439
				v10.001c0,9.982-2.668,18.13-8.008,24.438c-5.342,6.312-12.108,9.467-20.302,9.467H57.6z M63.077,29.577v66.955h13.995
				c6.629,0,12.083-2.688,16.363-8.068c4.283-5.38,6.424-12.183,6.424-20.413V57.898c0-8.122-2.148-14.873-6.445-20.251
				c-4.297-5.381-9.745-8.07-16.342-8.07H63.077z"/>
			<path fill="#FF9933" d="M107.494,101.987V24.123h19.564c6.966,0,12.391,1.703,16.272,5.111c3.882,3.406,5.823,8.533,5.823,15.381
				c0,3.996-0.974,7.474-2.922,10.437c-1.951,2.961-4.598,5.011-7.942,6.151c4.081,0.855,7.396,3.084,9.944,6.684
				c2.546,3.598,3.82,7.75,3.82,12.452c0,6.95-1.94,12.295-5.822,16.037c-3.885,3.741-9.077,5.611-15.583,5.611H107.494z
				 M112.971,59.045h15.424c4.847,0,8.6-1.237,11.254-3.718c2.654-2.478,3.982-6.121,3.982-10.938c0-4.92-1.413-8.617-4.235-11.095
				c-2.825-2.48-6.936-3.718-12.337-3.718h-14.088V59.045z M112.971,64.498v32.034h17.679c4.94,0,8.822-1.411,11.646-4.237
				c2.824-2.824,4.236-6.775,4.236-11.859c0-4.654-1.282-8.475-3.844-11.459c-2.563-2.986-6.285-4.479-11.164-4.479H112.971z"/>
		</g>
	</g>
	<rect x="3.607" y="3.607" fill="none" stroke="#425EB7" stroke-miterlimit="10" width="152.785" height="152.785"/>
</g>
<g>
</g>
<g>
</g>
<g>
</g>
<g>
</g>
<g>
</g>
</svg>
