<?xml version="1.0" encoding="utf-8"?>
<!-- Generator: Adobe Illustrator 16.0.3, SVG Export Plug-In . SVG Version: 6.00 Build 0)  -->
<!DOCTYPE svg PUBLIC "-//W3C//DTD SVG 1.1//EN" "http://www.w3.org/Graphics/SVG/1.1/DTD/svg11.dtd">
<svg version="1.1" id="Layer_1" xmlns="http://www.w3.org/2000/svg" xmlns:xlink="http://www.w3.org/1999/xlink" x="0px" y="0px"
	 width="90px" height="40px" viewBox="0 0 90 40" enable-background="new 0 0 90 40" xml:space="preserve">
<g>
	<g>
		<path fill="#3366CC" d="M83.515,27.435c0.167,0,0.25,0.074,0.25,0.224v1.05c0,0.111-0.053,0.233-0.16,0.366
			c-0.106,0.132-0.235,0.233-0.386,0.304l-1.546,0.744c-0.636,0.307-0.953,0.677-0.953,1.111v1.068h2.499
			c0.15,0,0.279,0.04,0.386,0.12c0.107,0.08,0.16,0.177,0.16,0.291v0.822c0,0.114-0.053,0.212-0.16,0.294
			c-0.106,0.081-0.235,0.122-0.386,0.122h-7.235c-0.151,0-0.281-0.039-0.39-0.118s-0.163-0.175-0.163-0.289v-3.61
			c0-0.668,0.238-1.216,0.715-1.644c0.477-0.427,1.12-0.641,1.93-0.641c1.128,0,1.835,0.55,2.121,1.649
			c0.085-0.175,0.231-0.337,0.438-0.485c0.208-0.149,0.509-0.319,0.904-0.512l1.68-0.797C83.327,27.458,83.426,27.435,83.515,27.435
			z M79.075,32.302v-1.865c0-0.3-0.08-0.564-0.238-0.794c-0.159-0.229-0.413-0.344-0.762-0.344s-0.603,0.115-0.762,0.344
			c-0.158,0.229-0.237,0.494-0.237,0.794v1.865H79.075z"/>
		<path fill="#3366CC" d="M83.207,26.708h-7.235c-0.151,0-0.279-0.041-0.384-0.122c-0.104-0.082-0.157-0.18-0.157-0.294v-5.046
			c0-0.113,0.055-0.211,0.163-0.291s0.238-0.12,0.39-0.12h0.546c0.151,0,0.28,0.04,0.387,0.12s0.16,0.178,0.16,0.291v3.813h1.69
			v-3.283c0-0.113,0.054-0.21,0.16-0.291c0.106-0.08,0.235-0.12,0.387-0.12h0.546c0.151,0,0.28,0.04,0.387,0.12
			c0.106,0.081,0.159,0.178,0.159,0.291v3.283h1.715v-3.804c0-0.11,0.052-0.205,0.157-0.284c0.104-0.079,0.232-0.118,0.383-0.118
			h0.559c0.15,0,0.279,0.041,0.386,0.122c0.107,0.082,0.16,0.18,0.16,0.294v5.023c0,0.114-0.053,0.212-0.16,0.294
			C83.498,26.667,83.365,26.708,83.207,26.708z"/>
		<path fill="#3366CC" d="M83.23,20.029h-7.235c-0.159,0-0.293-0.041-0.401-0.122c-0.108-0.082-0.163-0.18-0.163-0.294v-2.446
			c0-1.266,0.337-2.188,1.009-2.764s1.726-0.864,3.161-0.864s2.488,0.288,3.158,0.864c0.671,0.576,1.006,1.498,1.006,2.764v2.446
			c0,0.114-0.052,0.212-0.154,0.294C83.508,19.988,83.381,20.029,83.23,20.029z M82.12,18.38v-1.164
			c0-0.785-0.189-1.319-0.569-1.603c-0.38-0.282-1.03-0.424-1.95-0.424s-1.571,0.142-1.952,0.424
			c-0.382,0.283-0.572,0.817-0.572,1.603v1.164H82.12z"/>
		<path fill="#3366CC" d="M82.901,6.851c0.695,0.597,1.043,1.472,1.043,2.626c0,1.153-0.348,2.029-1.043,2.628
			c-0.695,0.598-1.796,0.897-3.304,0.897c-1.507,0-2.607-0.3-3.301-0.897c-0.693-0.599-1.04-1.475-1.04-2.628
			c0-1.154,0.347-2.029,1.04-2.626s1.794-0.896,3.301-0.896C81.105,5.955,82.206,6.254,82.901,6.851z M77.523,8.048
			c-0.465,0.294-0.697,0.771-0.697,1.429s0.232,1.135,0.697,1.431s1.157,0.444,2.077,0.444s1.612-0.148,2.075-0.444
			s0.694-0.772,0.694-1.431s-0.231-1.135-0.694-1.429c-0.463-0.295-1.155-0.442-2.075-0.442S77.988,7.753,77.523,8.048z"/>
	</g>
	<g>
		<path fill="#FF9933" d="M9.544,22.419v11.729H6.94V5.924h10.964c3.342,0,5.927,0.753,7.759,2.259
			c1.831,1.505,2.747,3.499,2.747,5.979c0,2.507-0.916,4.51-2.747,6.008c-1.832,1.5-4.417,2.248-7.759,2.248H9.544z M9.544,20.442
			h8.36c2.627,0,4.601-0.591,5.92-1.774c1.321-1.182,1.98-2.671,1.98-4.468c0-1.809-0.656-3.312-1.969-4.506
			c-1.313-1.195-3.29-1.793-5.932-1.793h-8.36V20.442z"/>
		<path fill="#FF9933" d="M29.203,34.147V5.924h9.258c3.895,0,7.112,1.15,9.65,3.45c2.539,2.301,3.807,5.253,3.807,8.858v3.624
			c0,3.619-1.268,6.572-3.807,8.859c-2.538,2.287-5.756,3.432-9.65,3.432H29.203z M31.807,7.902v24.267h6.654
			c3.15,0,5.744-0.975,7.779-2.924s3.053-4.416,3.053-7.398v-3.68c0-2.943-1.021-5.391-3.064-7.341
			c-2.042-1.949-4.632-2.924-7.768-2.924H31.807z"/>
		<path fill="#FF9933" d="M52.922,34.147V5.924h9.301c3.313,0,5.891,0.618,7.736,1.853s2.77,3.093,2.77,5.575
			c0,1.449-0.463,2.709-1.391,3.782c-0.926,1.073-2.184,1.817-3.775,2.23c1.941,0.31,3.518,1.117,4.729,2.421
			s1.816,2.811,1.816,4.514c0,2.52-0.924,4.457-2.77,5.813s-4.314,2.035-7.406,2.035H52.922z M55.527,18.582h7.332
			c2.303,0,4.088-0.448,5.35-1.347s1.893-2.22,1.893-3.964c0-1.784-0.672-3.124-2.014-4.022c-1.342-0.897-3.297-1.347-5.865-1.347
			h-6.695V18.582z M55.527,20.56v11.609h8.404c2.348,0,4.193-0.512,5.535-1.535s2.014-2.457,2.014-4.299
			c0-1.688-0.609-3.072-1.828-4.154c-1.219-1.08-2.986-1.621-5.307-1.621H55.527z"/>
	</g>
</g>
<g>
</g>
<g>
</g>
<g>
</g>
<g>
</g>
<g>
</g>
</svg>
